<mxfile host="app.diagrams.net" modified="2024-07-14T15:00:16.463Z" agent="Mozilla/5.0 (Windows NT 10.0; Win64; x64) AppleWebKit/537.36 (KHTML, like Gecko) Chrome/126.0.0.0 Safari/537.36" version="24.6.5" etag="PQXXeNbJhP2qDGLY79ap" type="github">
  <diagram name="Page-1" id="-T1dF1NPJCi3O5lQyB2u">
    <mxGraphModel>
      <root>
        <mxCell id="0" />
        <mxCell id="1" parent="0" />
      </root>
    </mxGraphModel>
  </diagram>
</mxfile>
